<svg id="svg" version="1.1" xmlns="http://www.w3.org/2000/svg" xmlns:xlink="http://www.w3.org/1999/xlink" width="180" height="90" viewBox="0, 0, 400,171.1340206185567"><g id="svgg"><path id="path0" d="M36.883 16.812 C 32.787 20.607,23.277 29.276,15.749 36.077 C 1.102 49.310,-0.281 51.546,6.186 51.546 C 8.454 51.546,10.309 50.718,10.309 49.705 C 10.309 48.692,11.723 47.322,13.450 46.659 C 15.984 45.686,16.183 46.215,14.481 49.395 C 10.972 55.952,11.797 78.260,15.603 79.720 C 21.943 82.153,23.585 77.238,21.026 63.480 C 18.911 52.104,19.035 50.223,22.088 47.460 C 25.241 44.607,25.307 44.649,22.830 47.938 C 17.252 55.347,54.239 53.027,63.918 45.361 C 68.213 41.959,72.336 39.175,73.079 39.175 C 73.823 39.175,77.775 35.928,81.862 31.959 C 85.949 27.990,90.542 24.742,92.069 24.742 C 93.596 24.742,94.845 23.685,94.845 22.392 C 94.845 21.100,96.398 18.907,98.295 17.520 C 102.103 14.735,96.726 13.805,61.856 11.215 L 44.330 9.913 36.883 16.812 M55.298 30.574 C 55.852 34.340,54.951 35.052,49.628 35.052 C 42.593 35.052,41.400 31.791,46.907 27.617 C 51.632 24.036,54.484 25.041,55.298 30.574 M72.809 43.193 C 57.319 54.917,55.297 55.670,39.311 55.670 C 27.205 55.670,24.742 56.240,24.742 59.039 C 24.742 64.578,29.386 78.351,31.254 78.351 C 32.209 78.351,32.990 90.756,32.990 105.917 L 32.990 133.484 24.500 140.453 C 19.831 144.286,14.976 147.804,13.712 148.270 C 9.443 149.842,6.186 154.321,6.186 158.616 C 6.186 162.853,6.743 162.887,77.320 162.887 L 148.454 162.887 148.454 157.636 C 148.454 153.961,146.601 151.331,142.281 148.873 C 138.886 146.941,136.103 144.665,136.096 143.814 C 136.088 142.964,135.202 142.268,134.127 142.268 C 123.994 142.268,121.649 133.798,121.649 97.186 L 121.649 61.856 105.155 61.856 C 89.433 61.856,88.658 61.638,88.628 57.216 C 88.611 54.665,87.426 48.663,85.995 43.880 L 83.393 35.182 72.809 43.193 M160.887 47.998 C 150.765 53.120,148.922 60.276,155.260 69.853 C 162.047 80.109,162.045 80.050,155.670 82.474 C 149.868 84.680,149.271 87.873,153.593 93.583 C 156.204 97.032,157.262 97.175,162.888 94.845 C 175.695 89.540,178.467 79.377,170.172 68.134 C 164.715 60.739,164.977 57.732,171.077 57.732 C 174.469 57.732,174.636 57.035,172.565 51.546 C 169.982 44.703,168.368 44.213,160.887 47.998 M179.381 51.546 C 179.381 57.109,180.035 57.732,185.871 57.732 L 192.361 57.732 190.984 77.320 L 189.607 96.907 198.163 96.907 L 206.718 96.907 205.317 80.851 C 203.675 62.028,204.836 57.732,211.561 57.732 C 215.669 57.732,216.495 56.696,216.495 51.546 L 216.495 45.361 197.938 45.361 L 179.381 45.361 179.381 51.546 M236.082 47.328 C 212.479 57.091,218.132 93.445,243.702 96.327 C 256.570 97.777,266.409 89.952,262.023 81.756 C 259.427 76.905,258.846 76.719,254.912 79.474 C 249.092 83.551,242.574 83.245,238.464 78.704 C 228.499 67.692,242.701 54.241,255.113 62.935 C 259.224 65.814,259.777 65.740,261.757 62.039 C 268.038 50.303,251.626 40.899,236.082 47.328 M270.103 71.134 L 270.103 96.907 277.320 96.907 L 284.536 96.907 284.536 86.598 L 284.536 76.289 294.845 76.289 L 305.155 76.289 305.155 86.598 L 305.155 96.907 312.371 96.907 L 319.588 96.907 319.588 71.134 L 319.588 45.361 312.371 45.361 C 305.193 45.361,305.155 45.410,305.155 54.639 L 305.155 63.918 294.845 63.918 L 284.536 63.918 284.536 54.639 C 284.536 45.410,284.498 45.361,277.320 45.361 L 270.103 45.361 270.103 71.134 M115.464 97.938 L 115.464 125.773 77.320 125.773 L 39.175 125.773 39.175 103.093 L 39.175 80.412 45.876 80.363 C 54.708 80.298,68.322 77.079,69.889 74.685 C 72.135 71.253,77.068 70.431,96.392 70.266 L 115.464 70.103 115.464 97.938 M208.247 118.205 C 208.247 121.860,207.138 122.969,203.608 122.844 C 199.792 122.709,198.969 123.777,198.969 128.866 C 198.969 134.401,199.674 135.087,205.670 135.388 L 212.371 135.724 212.371 124.563 C 212.371 118.424,211.443 113.402,210.309 113.402 C 209.175 113.402,208.247 115.563,208.247 118.205 M241.237 124.742 C 241.237 130.979,242.165 136.082,243.299 136.082 C 244.433 136.082,245.361 130.979,245.361 124.742 C 245.361 118.505,244.433 113.402,243.299 113.402 C 242.165 113.402,241.237 118.505,241.237 124.742 M257.732 124.742 C 257.732 130.979,258.660 136.082,259.794 136.082 C 260.928 136.082,261.856 134.547,261.856 132.670 C 261.856 129.495,262.118 129.495,265.626 132.670 C 270.912 137.454,273.579 136.939,269.107 131.997 C 266.082 128.654,265.882 127.344,268.009 124.781 C 271.075 121.087,267.929 120.525,264.330 124.124 C 262.405 126.048,261.856 125.132,261.856 120.000 C 261.856 116.371,260.928 113.402,259.794 113.402 C 258.660 113.402,257.732 118.505,257.732 124.742 M323.711 124.563 L 323.711 135.724 330.412 135.388 C 336.409 135.087,337.113 134.401,337.113 128.866 C 337.113 123.777,336.291 122.709,332.474 122.844 C 328.944 122.969,327.835 121.860,327.835 118.205 C 327.835 115.563,326.907 113.402,325.773 113.402 C 324.639 113.402,323.711 118.424,323.711 124.563 M387.629 121.649 C 387.629 126.186,388.557 129.897,389.691 129.897 C 390.825 129.897,391.753 126.186,391.753 121.649 C 391.753 117.113,390.825 113.402,389.691 113.402 C 388.557 113.402,387.629 117.113,387.629 121.649 M151.977 116.752 C 149.061 119.668,150.612 125.526,154.639 126.804 C 156.907 127.524,158.763 129.086,158.763 130.276 C 158.763 131.466,156.907 131.954,154.639 131.361 C 151.894 130.643,150.515 131.298,150.515 133.320 C 150.515 135.414,152.269 136.154,156.168 135.704 C 163.679 134.837,164.860 128.403,158.465 123.193 L 153.608 119.237 158.365 120.281 C 161.436 120.955,162.840 120.469,162.327 118.910 C 161.407 116.114,154.132 114.597,151.977 116.752 M167.038 121.300 C 164.854 123.639,164.735 124.671,166.581 125.286 C 167.951 125.743,169.072 128.359,169.072 131.100 C 169.072 134.154,170.269 136.082,172.165 136.082 C 173.866 136.082,175.258 135.155,175.258 134.021 C 175.258 132.887,174.330 131.959,173.196 131.959 C 170.228 131.959,170.650 126.278,173.693 125.264 C 175.604 124.627,175.459 123.618,173.119 121.278 C 170.316 118.475,169.675 118.477,167.038 121.300 M179.766 128.351 C 180.784 138.905,193.814 139.216,193.814 128.687 C 193.814 124.816,192.887 121.649,191.753 121.649 C 190.619 121.649,189.691 123.969,189.691 126.804 C 189.691 130.011,188.522 131.959,186.598 131.959 C 184.674 131.959,183.505 130.011,183.505 126.804 C 183.505 123.969,182.519 121.649,181.313 121.649 C 180.081 121.649,179.403 124.586,179.766 128.351 M217.759 129.107 C 219.473 133.208,220.353 137.925,219.714 139.588 C 219.052 141.316,219.558 142.278,220.896 141.832 C 224.143 140.750,231.471 121.649,228.639 121.649 C 227.417 121.649,225.933 123.505,225.340 125.773 C 224.747 128.041,223.550 129.897,222.680 129.897 C 221.811 129.897,220.614 128.041,220.021 125.773 C 219.428 123.505,217.975 121.649,216.793 121.649 C 215.480 121.649,215.855 124.550,217.759 129.107 M249.485 128.866 C 249.485 132.835,250.412 136.082,251.546 136.082 C 252.680 136.082,253.608 132.835,253.608 128.866 C 253.608 124.897,252.680 121.649,251.546 121.649 C 250.412 121.649,249.485 124.897,249.485 128.866 M275.074 124.477 C 272.773 130.474,275.159 135.036,280.945 135.704 C 287.707 136.484,288.604 132.632,281.959 131.352 L 277.320 130.458 282.110 130.178 C 285.486 129.980,286.697 128.832,286.213 126.289 C 285.335 121.686,276.685 120.279,275.074 124.477 M300.073 123.593 C 299.281 124.875,300.688 125.827,303.487 125.904 L 308.247 126.035 303.608 127.899 C 296.580 130.724,297.678 136.082,305.285 136.082 C 311.169 136.082,311.557 135.624,310.955 129.381 C 310.293 122.513,303.104 118.689,300.073 123.593 M343.113 124.484 C 340.642 130.923,343.142 135.052,349.513 135.052 C 354.980 135.052,355.670 134.358,355.670 128.866 C 355.670 121.835,345.492 118.283,343.113 124.484 M362.199 123.024 C 359.626 125.597,360.814 129.592,364.433 130.537 C 367.869 131.436,367.869 131.492,364.433 131.720 C 359.409 132.053,359.885 136.082,364.948 136.082 C 369.576 136.082,370.821 128.884,366.495 127.139 C 364.433 126.307,364.433 126.066,366.495 125.936 C 367.912 125.846,369.072 124.845,369.072 123.711 C 369.072 121.392,364.308 120.916,362.199 123.024 M374.570 123.024 C 371.998 125.597,373.185 129.592,376.804 130.537 C 380.241 131.436,380.241 131.492,376.804 131.720 C 371.780 132.053,372.256 136.082,377.320 136.082 C 381.947 136.082,383.192 128.884,378.866 127.139 C 376.804 126.307,376.804 126.066,378.866 125.936 C 380.284 125.846,381.443 124.845,381.443 123.711 C 381.443 121.392,376.679 120.916,374.570 123.024 M208.247 128.866 C 208.247 130.567,206.856 131.959,205.155 131.959 C 203.454 131.959,202.062 130.567,202.062 128.866 C 202.062 127.165,203.454 125.773,205.155 125.773 C 206.856 125.773,208.247 127.165,208.247 128.866 M334.021 128.866 C 334.021 130.567,332.629 131.959,330.928 131.959 C 329.227 131.959,327.835 130.567,327.835 128.866 C 327.835 127.165,329.227 125.773,330.928 125.773 C 332.629 125.773,334.021 127.165,334.021 128.866 M352.577 128.866 C 352.577 130.567,351.186 131.959,349.485 131.959 C 347.784 131.959,346.392 130.567,346.392 128.866 C 346.392 127.165,347.784 125.773,349.485 125.773 C 351.186 125.773,352.577 127.165,352.577 128.866 M124.841 141.538 C 127.622 144.539,129.897 147.322,129.897 147.724 C 129.897 148.125,106.005 148.453,76.804 148.451 L 23.711 148.449 29.897 142.384 L 36.082 136.318 77.934 136.200 L 119.785 136.082 124.841 141.538 " stroke="none" fill="#000000" fill-rule="evenodd"></path></g></svg>
